# xmcd
#
# Track frame offsets:
#	150
#	18732
#	33467
#	47272
#	58500
#	67412
#	85087
#	102500
#	119920
#	130262
#	144097
#	156382
#	170517
#	182700
#	198647
#	212900
#	226530
#	239047
#
# Disc length: 3354 seconds
#
# Revision: 0
# Processed by: cddbd v1.5.2PL0 Copyright (c) Steve Scherf et al.
# Submitted via: EasyCDDAExtractor 15.2.5.1
#
DISCID=0c0d1812
DTITLE=Various Artist - 여름노래 모음 (1989) by oreum.com
DYEAR=1989
DGENRE=Pop
TTITLE0=해변으로 가요 - 서울패밀리
TTITLE1=파도의 추억 - 영사운드
TTITLE2=정든 배 - 에보니스
TTITLE3=언덕에 올라 - 투코리언스
TTITLE4=초원의 빛 - 히식스
TTITLE5=지난 여름의 발자국 - 김수곤
TTITLE6=뱃노래 - 서울패밀리
TTITLE7=파도 - 템 페스트
TTITLE8=즐거운 여름 - 펄 시스터즈
TTITLE9=갯바위 - 한마음
TTITLE10=계속의 무지개 - 김홍철
TTITLE11=달무리 - 영사운드
TTITLE12=등대지기 - 허림
TTITLE13=젊은 태양 - 구창모
TTITLE14=바다의 여인 - 4월과 5월
TTITLE15=해변의 여인 - 나훈아
TTITLE16=햇빛 쏟아지는 들판 - 장계현
TTITLE17=독도는 우리땅 - 김도향
EXTD=
EXTT0=
EXTT1=
EXTT2=
EXTT3=
EXTT4=
EXTT5=
EXTT6=
EXTT7=
EXTT8=
EXTT9=
EXTT10=
EXTT11=
EXTT12=
EXTT13=
EXTT14=
EXTT15=
EXTT16=
EXTT17=
PLAYORDER=
